<?xml version="1.0" encoding="UTF-8"?>
<svg xmlns="http://www.w3.org/2000/svg" xmlns:xlink="http://www.w3.org/1999/xlink" viewBox="0 0 20 20" width="20px" height="20px">
<g id="surface185347807">
<path style="fill-rule:nonzero;fill:rgb(89.019608%,89.019608%,89.019608%);fill-opacity:1;stroke-width:1;stroke-linecap:butt;stroke-linejoin:round;stroke:rgb(89.019608%,89.019608%,89.019608%);stroke-opacity:1;stroke-miterlimit:10;" d="M 54.8 57.8 L 128 131 L 201.2 57.8 C 203.2 55.8 206.4 55.8 208.4 57.8 L 239.15 88.55 C 241.15 90.55 241.15 93.8 239.15 95.8 L 131.6 203.3 C 129.6 205.3 126.4 205.3 124.4 203.3 L 16.85 95.8 C 14.85 93.8 14.85 90.55 16.85 88.55 L 47.6 57.8 C 48.5 56.9 49.8 56.35 51.1 56.3 C 52.5 56.3 53.85 56.85 54.8 57.8 Z M 54.8 57.8 " transform="matrix(0.078125,0,0,0.078125,0,0)"/>
<path style=" stroke:none;fill-rule:nonzero;fill:rgb(56.078434%,55.686277%,55.686277%);fill-opacity:1;" d="M 3.992188 4.398438 C 3.890625 4.402344 3.789062 4.445312 3.71875 4.515625 L 1.316406 6.917969 C 1.160156 7.074219 1.160156 7.328125 1.316406 7.484375 L 9.71875 15.882812 C 9.875 16.039062 10.125 16.039062 10.28125 15.882812 L 18.683594 7.484375 C 18.839844 7.328125 18.839844 7.074219 18.683594 6.917969 L 16.28125 4.515625 C 16.125 4.359375 15.875 4.359375 15.71875 4.515625 L 10 10.234375 L 4.28125 4.515625 C 4.207031 4.441406 4.101562 4.398438 3.992188 4.398438 Z M 4 5.367188 L 9.71875 11.082031 C 9.875 11.238281 10.125 11.238281 10.28125 11.082031 L 16 5.367188 L 17.835938 7.199219 L 10 15.035156 L 2.164062 7.199219 Z M 4 5.367188 "/>
</g>
</svg>
