<?xml version="1.0" encoding="UTF-8"?>
<svg xmlns="http://www.w3.org/2000/svg" xmlns:xlink="http://www.w3.org/1999/xlink" viewBox="0 0 22 22" width="22px" height="22px">
<g id="surface186473766">
<path style="fill-rule:nonzero;fill:rgb(89.019608%,89.019608%,89.019608%);fill-opacity:1;stroke-width:1;stroke-linecap:butt;stroke-linejoin:round;stroke:rgb(89.019608%,89.019608%,89.019608%);stroke-opacity:1;stroke-miterlimit:10;" d="M 174.727273 125.818182 C 173.5 127 173.5 128.954545 174.727273 130.136364 L 235.954545 191.409091 C 241.318182 196.772727 241.318182 205.454545 235.954545 210.818182 L 210.818182 235.954545 C 208.227273 238.545455 204.772727 240 201.090909 240 C 197.409091 240 193.954545 238.545455 191.363636 235.954545 L 130.136364 174.727273 C 128.954545 173.545455 127 173.545455 125.818182 174.727273 L 64.545455 235.954545 C 59.409091 241.136364 50.318182 241.136364 45.136364 235.954545 L 20 210.818182 C 14.636364 205.454545 14.636364 196.772727 20 191.409091 L 81.272727 130.136364 C 82.454545 128.954545 82.454545 127 81.272727 125.818182 L 20 64.590909 C 14.681818 59.227273 14.681818 50.5 20 45.181818 L 45.181818 20 C 50.363636 14.818182 59.409091 14.818182 64.590909 20 L 125.863636 81.272727 C 127.045455 82.454545 129 82.454545 130.181818 81.272727 L 191.454545 20.045455 C 196.590909 14.863636 205.681818 14.863636 210.863636 20.045455 L 236 45.181818 C 241.318182 50.545455 241.318182 59.227273 236 64.590909 Z M 174.727273 125.818182 " transform="matrix(0.0859375,0,0,0.0859375,0,0)"/>
<path style=" stroke:none;fill-rule:nonzero;fill:rgb(60.392159%,60.000002%,60.000002%);fill-opacity:1;" d="M 20.28125 5.550781 C 20.738281 5.089844 20.738281 4.34375 20.28125 3.882812 L 18.121094 1.722656 C 17.675781 1.277344 16.894531 1.277344 16.453125 1.722656 L 11.1875 6.984375 C 11.085938 7.085938 10.917969 7.085938 10.816406 6.984375 L 5.550781 1.71875 C 5.105469 1.273438 4.328125 1.273438 3.882812 1.71875 L 1.71875 3.882812 C 1.261719 4.339844 1.261719 5.089844 1.71875 5.550781 L 6.984375 10.8125 C 7.085938 10.914062 7.085938 11.082031 6.984375 11.183594 L 1.71875 16.449219 C 1.257812 16.910156 1.257812 17.65625 1.71875 18.117188 L 3.878906 20.277344 C 4.324219 20.722656 5.105469 20.722656 5.546875 20.277344 L 10.8125 15.015625 C 10.914062 14.914062 11.082031 14.914062 11.183594 15.015625 L 16.445312 20.277344 C 16.667969 20.5 16.964844 20.625 17.28125 20.625 C 17.597656 20.625 17.894531 20.5 18.117188 20.277344 L 20.277344 18.117188 C 20.738281 17.65625 20.738281 16.910156 20.277344 16.449219 L 15.015625 11.183594 C 14.910156 11.082031 14.910156 10.914062 15.015625 10.8125 Z M 14.367188 11.835938 L 19.628906 17.097656 C 19.734375 17.199219 19.734375 17.367188 19.628906 17.46875 L 17.46875 19.628906 C 17.371094 19.730469 17.195312 19.730469 17.097656 19.628906 L 11.835938 14.367188 C 11.605469 14.136719 11.300781 14.023438 11 14.023438 C 10.699219 14.023438 10.394531 14.136719 10.164062 14.367188 L 4.902344 19.628906 C 4.804688 19.730469 4.628906 19.730469 4.527344 19.628906 L 2.367188 17.46875 C 2.265625 17.367188 2.265625 17.199219 2.367188 17.097656 L 7.632812 11.835938 C 8.09375 11.375 8.09375 10.625 7.632812 10.164062 L 2.367188 4.902344 C 2.265625 4.800781 2.265625 4.632812 2.367188 4.53125 L 4.527344 2.371094 C 4.628906 2.269531 4.800781 2.269531 4.902344 2.371094 L 10.164062 7.632812 C 10.625 8.09375 11.375 8.09375 11.832031 7.632812 L 17.097656 2.371094 C 17.195312 2.269531 17.371094 2.269531 17.46875 2.371094 L 19.628906 4.53125 C 19.734375 4.632812 19.734375 4.800781 19.628906 4.902344 L 14.367188 10.164062 C 13.90625 10.625 13.90625 11.375 14.367188 11.835938 Z M 14.367188 11.835938 "/>
</g>
</svg>
